<?xml version="1.0" encoding="UTF-8"?>
<svg width="800px" height="800px" viewBox="0 0 36 36" xmlns="http://www.w3.org/2000/svg" xmlns:xlink="http://www.w3.org/1999/xlink" aria-hidden="true" role="img" class="iconify iconify--twemoji" preserveAspectRatio="xMidYMid meet">
  <path fill="#EEE" d="M36 27a4 4 0 0 1-4 4H4a4 4 0 0 1-4-4V9a4 4 0 0 1 4-4h28a4 4 0 0 1 4 4v18z"></path>
  <path fill="#BD3D44" d="M36 13H0v4h36v-4zm0 8H0v4h36v-4zM0 9a4 4 0 0 1 4-4h28a4 4 0 0 1 4 4v1H0V9zm0 22v-1h36v1a4 4 0 0 1-4 4H4a4 4 0 0 1-4-4z"></path>
  <path fill="#192F5D" d="M16 9H0v9h16V9z"></path>
  <path fill="#FFF" d="M1.301 9.423l.331.961h1.03l-.834.608l.328.954l-.835-.606l-.835.606l.328-.954l-.834-.608h1.03zm0 3l.331.961h1.03l-.834.608l.328.954l-.835-.606l-.835.606l.328-.954l-.834-.608h1.03zm0 3l.331.961h1.03l-.834.608l.328.954l-.835-.606l-.835.606l.328-.954l-.834-.608h1.03zm2.555-6l.331.961h1.03l-.834.608l.328.954l-.835-.606l-.835.606l.328-.954l-.834-.608h1.03zm0 3l.331.961h1.03l-.834.608l.328.954l-.835-.606l-.835.606l.328-.954l-.834-.608h1.03zm0 3l.331.961h1.03l-.834.608l.328.954l-.835-.606l-.835.606l.328-.954l-.834-.608h1.03zm2.555-6l.331.961h1.03l-.834.608l.328.954l-.835-.606l-.835.606l.328-.954l-.834-.608h1.03zm0 3l.331.961h1.03l-.834.608l.328.954l-.835-.606l-.835.606l.328-.954l-.834-.608h1.03zm0 3l.331.961h1.03l-.834.608l.328.954l-.835-.606l-.835.606l.328-.954l-.834-.608h1.03zm2.555-6l.331.961h1.03l-.834.608l.328.954l-.835-.606l-.835.606l.328-.954l-.834-.608h1.03zm0 3l.331.961h1.03l-.834.608l.328.954l-.835-.606l-.835.606l.328-.954l-.834-.608h1.03zm0 3l.331.961h1.03l-.834.608l.328.954l-.835-.606l-.835.606l.328-.954l-.834-.608h1.03zm2.555-6l.331.961h1.03l-.834.608l.328.954l-.835-.606l-.835.606l.328-.954l-.834-.608h1.03zm0 3l.331.961h1.03l-.834.608l.328.954l-.835-.606l-.835.606l.328-.954l-.834-.608h1.03zm0 3l.331.961h1.03l-.834.608l.328.954l-.835-.606l-.835.606l.328-.954l-.834-.608h1.03z"></path>
</svg>
